<svg width="152.098" xmlns="http://www.w3.org/2000/svg" height="167" id="screenshot-9ef77479-dc77-80b9-8006-99b09c16fdc3" viewBox="0 0 152.098 167" xmlns:xlink="http://www.w3.org/1999/xlink" fill="none" version="1.1"><g id="shape-9ef77479-dc77-80b9-8006-99b09c16fdc3" rx="0" ry="0"><g id="shape-9ef77479-dc77-80b9-8006-99ae6d6efe6a"><g class="fills" id="fills-9ef77479-dc77-80b9-8006-99ae6d6efe6a"><path d="M76.00070190429688,0C65.00070190429688,0,-2.006805419921875,27.32244873046875,0.0461883544921875,43C11.046188354492188,127,76.00070190429688,167,76.00070190429688,167C76.00070190429688,167,141.04620361328125,127,152.04620361328125,44C154.24853515625,27.38226318359375,86.00070190429688,0,76.00070190429688,0"/></g><g id="strokes-24e5e30a-460e-8054-8006-99c6074dd810-9ef77479-dc77-80b9-8006-99ae6d6efe6a" class="strokes"><g class="inner-stroke-shape"><defs><clipPath id="inner-stroke-render-2-9ef77479-dc77-80b9-8006-99ae6d6efe6a-0"><use href="#stroke-shape-render-2-9ef77479-dc77-80b9-8006-99ae6d6efe6a-0"/></clipPath><path d="M76.00070190429688,0C65.00070190429688,0,-2.006805419921875,27.32244873046875,0.0461883544921875,43C11.046188354492188,127,76.00070190429688,167,76.00070190429688,167C76.00070190429688,167,141.04620361328125,127,152.04620361328125,44C154.24853515625,27.38226318359375,86.00070190429688,0,76.00070190429688,0" id="stroke-shape-render-2-9ef77479-dc77-80b9-8006-99ae6d6efe6a-0" style="fill: none; stroke-width: 24; stroke: rgb(198, 55, 71); stroke-opacity: 1;"/></defs><use href="#stroke-shape-render-2-9ef77479-dc77-80b9-8006-99ae6d6efe6a-0" clip-path="url('#inner-stroke-render-2-9ef77479-dc77-80b9-8006-99ae6d6efe6a-0')"/></g></g></g><g id="shape-9ef77479-dc77-80b9-8006-99afc8eca107"><g class="fills" id="fills-9ef77479-dc77-80b9-8006-99afc8eca107"><path d="M82,113L95,38"/></g><g id="strokes-24e5e30a-460e-8054-8006-99c6074e95a2-9ef77479-dc77-80b9-8006-99afc8eca107" class="strokes"><g class="stroke-shape"><path d="M82,113L95,38" style="fill: none; stroke-width: 8; stroke: rgb(198, 55, 71); stroke-opacity: 1; stroke-linecap: round;"/></g></g></g><g id="shape-9ef77479-dc77-80b9-8006-99b026e33f2b"><g class="fills" id="fills-9ef77479-dc77-80b9-8006-99b026e33f2b"><path d="M56,112L69,37"/></g><g id="strokes-24e5e30a-460e-8054-8006-99c6074f3ddc-9ef77479-dc77-80b9-8006-99b026e33f2b" class="strokes"><g class="stroke-shape"><path d="M56,112L69,37" style="fill: none; stroke-width: 8; stroke: rgb(198, 55, 71); stroke-opacity: 1; stroke-linecap: round;"/></g></g></g><g id="shape-9ef77479-dc77-80b9-8006-99afd743add9"><g class="fills" id="fills-9ef77479-dc77-80b9-8006-99afd743add9"><path d="M51,58L104,58"/></g><g id="strokes-24e5e30a-460e-8054-8006-99c6074f72f5-9ef77479-dc77-80b9-8006-99afd743add9" class="strokes"><g class="stroke-shape"><path d="M51,58L104,58" style="fill: none; stroke-width: 8; stroke: rgb(198, 55, 71); stroke-opacity: 1; stroke-linecap: round;"/></g></g></g><g id="shape-9ef77479-dc77-80b9-8006-99b02d0b1852"><g class="fills" id="fills-9ef77479-dc77-80b9-8006-99b02d0b1852"><path d="M48,88L101,88"/></g><g id="strokes-24e5e30a-460e-8054-8006-99c6074fd473-9ef77479-dc77-80b9-8006-99b02d0b1852" class="strokes"><g class="stroke-shape"><path d="M48,88L101,88" style="fill: none; stroke-width: 8; stroke: rgb(198, 55, 71); stroke-opacity: 1; stroke-linecap: round;"/></g></g></g></g></svg>